<svg width="316" height="84" viewBox="0 0 316 84" fill="none" xmlns="http://www.w3.org/2000/svg">
<rect width="316" height="84" fill="white"/>
<path d="M18.76 22.52C22.904 22.52 26.5253 23.36 29.624 25.04C32.76 26.6827 35.168 28.9973 36.848 31.984C38.528 34.9707 39.368 38.3867 39.368 42.232C39.368 46.04 38.5093 49.4373 36.792 52.424C35.112 55.4107 32.704 57.7627 29.568 59.48C26.4693 61.16 22.8667 62 18.76 62H3.136V22.52H18.76ZM17.92 52.312C21.1307 52.312 23.6507 51.4347 25.48 49.68C27.3093 47.9253 28.224 45.4427 28.224 42.232C28.224 38.984 27.3093 36.4827 25.48 34.728C23.6507 32.936 21.1307 32.04 17.92 32.04H14.112V52.312H17.92ZM55.2917 22.52V62H44.3157V22.52H55.2917ZM86.7423 35.512C86.1076 34.4667 85.2303 33.664 84.1103 33.104C83.0276 32.544 81.7396 32.264 80.2463 32.264C77.4836 32.264 75.2996 33.16 73.6943 34.952C72.1263 36.744 71.3423 39.152 71.3423 42.176C71.3423 45.5733 72.1823 48.168 73.8623 49.96C75.5796 51.7147 78.0623 52.592 81.3103 52.592C85.1556 52.592 87.8996 50.856 89.5423 47.384H78.5103V39.488H99.0063V50.128C98.1476 52.2187 96.8783 54.1787 95.1983 56.008C93.5556 57.8373 91.4649 59.3493 88.9263 60.544C86.3876 61.7013 83.4943 62.28 80.2463 62.28C76.2889 62.28 72.7796 61.44 69.7183 59.76C66.6943 58.0427 64.3423 55.672 62.6623 52.648C61.0196 49.5867 60.1983 46.096 60.1983 42.176C60.1983 38.2933 61.0196 34.84 62.6623 31.816C64.3423 28.7547 66.6943 26.384 69.7183 24.704C72.7423 22.9867 76.2329 22.128 80.1903 22.128C85.1556 22.128 89.2623 23.3227 92.5103 25.712C95.7583 28.1013 97.7743 31.368 98.5583 35.512H86.7423ZM114.901 22.52V62H103.925V22.52H114.901ZM150.888 22.52V31.256H140.36V62H129.384V31.256H118.968V22.52H150.888ZM179.925 55.56H165.925L163.797 62H152.261L166.653 22.52H179.309L193.645 62H182.053L179.925 55.56ZM177.181 47.16L172.925 34.392L168.725 47.16H177.181ZM208.198 53.6H220.462V62H197.222V22.52H208.198V53.6Z" fill="black"/>
<path d="M237.313 62.6562C235.818 62.6562 234.351 62.4466 232.911 62.0273C231.489 61.6263 230.231 60.9245 229.137 59.9219C228.062 58.9193 227.287 57.5521 226.813 55.8203L230.231 54.4258C230.687 55.6107 231.206 56.5677 231.79 57.2969C232.373 58.0078 233.13 58.5273 234.059 58.8555C235.007 59.1836 236.219 59.3477 237.696 59.3477C239.61 59.3477 241.169 59.0286 242.372 58.3906C243.575 57.7526 244.176 56.5221 244.176 54.6992C244.176 53.7513 244.076 53.0039 243.876 52.457C243.693 51.8919 243.32 51.4453 242.755 51.1172C242.208 50.7891 241.396 50.4883 240.321 50.2148C239.264 49.9414 237.86 49.6133 236.11 49.2305C234.214 48.793 232.637 48.3099 231.38 47.7812C230.14 47.2526 229.21 46.487 228.59 45.4844C227.989 44.4635 227.688 43.0326 227.688 41.1914C227.688 38.6758 228.645 36.7526 230.559 35.4219C232.473 34.0911 234.971 33.4258 238.051 33.4258C240.494 33.4258 242.499 33.8268 244.067 34.6289C245.635 35.431 246.911 36.862 247.895 38.9219C247.895 38.9219 247.749 39.0039 247.458 39.168C247.166 39.332 246.82 39.5234 246.419 39.7422C246.036 39.9427 245.699 40.1341 245.407 40.3164C245.115 40.4805 244.969 40.5625 244.969 40.5625C244.295 39.1589 243.447 38.1654 242.426 37.582C241.424 36.9987 240.029 36.707 238.243 36.707C235.928 36.707 234.314 37.0807 233.403 37.8281C232.492 38.5755 232.036 39.724 232.036 41.2734C232.036 42.276 232.218 43.0508 232.583 43.5977C232.965 44.1263 233.631 44.5547 234.579 44.8828C235.527 45.1927 236.867 45.5299 238.598 45.8945C240.913 46.3685 242.773 46.9154 244.176 47.5352C245.58 48.1549 246.601 48.9844 247.239 50.0234C247.895 51.0625 248.223 52.4661 248.223 54.2344C248.223 56.9688 247.367 59.056 245.653 60.4961C243.958 61.9362 241.178 62.6562 237.313 62.6562ZM263.153 62.6562C260.874 62.6562 259.079 62.2643 257.766 61.4805C256.454 60.6784 255.478 59.6302 254.84 58.3359C254.221 57.0417 253.82 55.6471 253.637 54.1523C253.473 52.6393 253.391 51.1719 253.391 49.75V34.0273H258.04V50.3789C258.04 52.3294 258.213 53.9792 258.559 55.3281C258.906 56.6589 259.516 57.6615 260.391 58.3359C261.266 59.0104 262.497 59.3477 264.083 59.3477C266.179 59.3477 267.82 58.8099 269.005 57.7344C270.208 56.6589 271.055 55.237 271.548 53.4688C272.058 51.6823 272.313 49.7591 272.313 47.6992V34.0273H276.962V62H272.313V57.7891C271.402 59.3568 270.189 60.5599 268.676 61.3984C267.182 62.237 265.34 62.6562 263.153 62.6562ZM283.907 62V34.0273H288.528V38.8945C289.476 37.1263 290.652 35.8411 292.055 35.0391C293.459 34.2188 295.072 33.8086 296.895 33.8086V37.9102C294.908 37.9102 293.304 38.3568 292.083 39.25C290.861 40.1432 289.968 41.3099 289.403 42.75C288.856 44.1901 288.564 45.7396 288.528 47.3984L288.555 62H283.907ZM304.087 62V37.4727H299.329V34.0273H304.087V30.8555C304.087 28.6133 304.324 26.8268 304.797 25.4961C305.29 24.1471 306.046 23.181 307.067 22.5977C308.088 21.9961 309.4 21.6953 311.005 21.6953C311.88 21.6953 312.745 21.8411 313.602 22.1328C314.477 22.4062 315.152 22.6979 315.626 23.0078L314.45 26.0156C314.012 25.7969 313.547 25.6146 313.055 25.4688C312.563 25.3229 312.053 25.25 311.524 25.25C310.339 25.25 309.574 25.6146 309.227 26.3438C308.899 27.0729 308.735 28.3854 308.735 30.2812V34.0273H314.395V37.4727H308.735V62H304.087Z" fill="#7544FD"/>
</svg>
